<?xml version="1.0" encoding="utf-8"?>
<!-- Generator: Adobe Illustrator 22.0.1, SVG Export Plug-In . SVG Version: 6.00 Build 0)  -->
<svg version="1.1" xmlns="http://www.w3.org/2000/svg" xmlns:xlink="http://www.w3.org/1999/xlink" x="0px" y="0px"
	 viewBox="0 0 138.6 225.8" style="enable-background:new 0 0 138.6 225.8;" xml:space="preserve">
<style type="text/css">
	.st0{display:none;}
	.st1{display:inline;fill:#F4D452;}
	.st2{display:inline;fill:#00AAE2;}
	.st3{display:inline;fill:#C6227F;}
	.st4{display:inline;fill:#E72483;}
	.st5{display:inline;fill:#F9A448;}
	.st6{display:inline;fill:#0078BC;}
	.st7{display:inline;fill:#FDBE42;}
	.st8{display:inline;fill:#E84182;}
	.st9{fill:#00AAE2;}
	.st10{fill:#0078BC;}
	.st11{fill:#E72483;}
	.st12{fill:#C6227F;}
	.st13{fill:#FDBE42;}
	.st14{fill:#F9A448;}
	.st15{display:inline;fill:url(#SVGID_1_);}
	.st16{display:inline;fill:url(#SVGID_2_);}
	.st17{display:inline;opacity:0.43;fill:url(#SVGID_3_);}
	.st18{display:inline;fill:url(#SVGID_4_);}
	.st19{display:inline;fill:url(#SVGID_5_);}
	.st20{display:inline;fill:url(#SVGID_6_);}
	.st21{display:inline;fill:url(#SVGID_7_);}
	.st22{display:inline;fill:url(#SVGID_8_);}
	.st23{display:inline;fill:url(#SVGID_9_);}
	.st24{display:inline;fill:url(#SVGID_10_);}
	.st25{display:inline;fill:url(#SVGID_11_);}
	.st26{display:inline;opacity:0.25;fill:url(#SVGID_12_);}
	.st27{display:inline;fill:url(#SVGID_13_);}
	.st28{display:inline;opacity:0.17;fill:url(#SVGID_14_);}
</style>
<g id="Layer_1" class="st0">
	<path class="st1" d="M69-0.3l-1.5,5.1v149.3l1.5,1.5l69.3-41L69-0.3z"/>
	<path class="st2" d="M69-0.3l-69.3,115l69.3,41V83.2V-0.3z"/>
	<path class="st3" d="M69,168.7l-0.9,1V223l0.9,2.5l69.3-97.7L69,168.7z"/>
	<path class="st4" d="M69,225.5v-56.7l-69.3-40.9L69,225.5z"/>
	<path class="st5" d="M69,155.6l69.3-41L69,83.2V155.6z"/>
	<path class="st6" d="M-0.3,114.7l69.3,41V83.2L-0.3,114.7z"/>
</g>
<g id="Layer_2" class="st0">
	<path class="st2" d="M69.3,0l-1.5,5.1v149.3l1.5,1.5l69.3-41L69.3,0z"/>
	<path class="st6" d="M69.3,0L0,115l69.3,41V83.5V0z"/>
	<path class="st7" d="M69.3,169.1l-0.9,1v53.2l0.9,2.5l69.3-97.7L69.3,169.1z"/>
	<path class="st5" d="M69.3,225.8v-56.7L0,128.1L69.3,225.8z"/>
	<path class="st8" d="M69.3,156l69.3-41L69.3,83.5V156z"/>
	<path class="st3" d="M0,115l69.3,41V83.5L0,115z"/>
</g>
<g id="Layer_2_copy">
	<path class="st9" d="M69.3,0l-1.5,5.1v149.3l1.5,1.5l69.3-41L69.3,0z"/>
	<path class="st10" d="M69.3,0L0,115l69.3,41V83.5V0z"/>
	<path class="st11" d="M69.3,169.1l-0.9,1v53.2l0.9,2.5l69.3-97.7L69.3,169.1z"/>
	<path class="st12" d="M69.3,225.8v-56.7L0,128.1L69.3,225.8z"/>
	<path class="st13" d="M69.3,156l69.3-41L69.3,83.5V156z"/>
	<path class="st14" d="M0,115l69.3,41V83.5L0,115z"/>
</g>
<g id="Layer_3" class="st0">
	
		<linearGradient id="SVGID_1_" gradientUnits="userSpaceOnUse" x1="-45.4999" y1="97.5542" x2="134.5671" y2="97.5542" gradientTransform="matrix(0.9999 -1.709792e-03 1.709792e-03 0.9999 10.7203 -4.2316)">
		<stop  offset="0" style="stop-color:#262262"/>
		<stop  offset="0.5" style="stop-color:#662D91"/>
		<stop  offset="0.6733" style="stop-color:#642C8E"/>
		<stop  offset="0.7998" style="stop-color:#5C2A85"/>
		<stop  offset="0.911" style="stop-color:#4E2675"/>
		<stop  offset="1" style="stop-color:#3E2262"/>
	</linearGradient>
	<path class="st15" d="M-12,60c0,0,15.3,15.4,109.9,23.8c21.1,1.9,35,3.4,46.7,9.3c0,0,7.1,15-20.6,17.3
		c-27.7,2.4-69.9,16.1-69.9,16.1S1.1,122.9-3.4,121c-4.5-1.9-25.4-6.1-30.6-27.6S-12,60-12,60z"/>
	
		<linearGradient id="SVGID_2_" gradientUnits="userSpaceOnUse" x1="-45.4999" y1="97.5542" x2="134.5671" y2="97.5542" gradientTransform="matrix(0.9999 -1.709792e-03 1.709792e-03 0.9999 10.7203 -4.2316)">
		<stop  offset="0" style="stop-color:#17224D"/>
		<stop  offset="0.1136" style="stop-color:#32235C;stop-opacity:0.8864"/>
		<stop  offset="0.2834" style="stop-color:#55256E;stop-opacity:0.7166"/>
		<stop  offset="0.4564" style="stop-color:#70267D;stop-opacity:0.5436"/>
		<stop  offset="0.6319" style="stop-color:#832687;stop-opacity:0.3681"/>
		<stop  offset="0.8111" style="stop-color:#8E278D;stop-opacity:0.1889"/>
		<stop  offset="1" style="stop-color:#92278F;stop-opacity:0"/>
	</linearGradient>
	<path class="st16" d="M-12,60c0,0,15.3,15.5,109.9,23.8c21,1.8,35,3.4,46.7,9.3c0,0,7.1,15-20.6,17.3
		c-27.7,2.4-69.9,16.1-69.9,16.1S1.1,122.9-3.4,121c-4.5-1.9-25.4-6.1-30.6-27.6S-12,60-12,60z"/>
	
		<linearGradient id="SVGID_3_" gradientUnits="userSpaceOnUse" x1="-45.5" y1="100.7007" x2="103.9158" y2="100.7007" gradientTransform="matrix(0.9999 -1.709792e-03 1.709792e-03 0.9999 10.7203 -4.2316)">
		<stop  offset="0" style="stop-color:#92278F;stop-opacity:0"/>
		<stop  offset="0.1214" style="stop-color:#972D90;stop-opacity:0.1214"/>
		<stop  offset="0.429" style="stop-color:#9F3591;stop-opacity:0.429"/>
		<stop  offset="1" style="stop-color:#A13791"/>
	</linearGradient>
	<path class="st17" d="M33.7,105.5c-56.3-4.1-50.7-15.9-50.7-15.9s-2.8-11.3-5.1-23.3C-29.3,71.9-36.9,81-34,93.4
		C-28.8,115-7.9,119.2-3.4,121c4.5,1.9,57.6,5.5,57.6,5.5s33.7-11,60.6-15C94.7,109.3,65.7,107.8,33.7,105.5z"/>
	
		<linearGradient id="SVGID_4_" gradientUnits="userSpaceOnUse" x1="-60.8117" y1="9.7578" x2="175.3391" y2="9.7578" gradientTransform="matrix(0.9999 -1.709792e-03 1.709792e-03 0.9999 10.7203 -4.2316)">
		<stop  offset="0" style="stop-color:#1C75BC"/>
		<stop  offset="0.5" style="stop-color:#00AEEF"/>
		<stop  offset="1" style="stop-color:#4FD5DF"/>
	</linearGradient>
	<path class="st18" d="M-50,64.8c4.9-30.7,29.9-41.9,60.3-53.7c0,0,102.4-31.7,175.6-65"/>
	
		<linearGradient id="SVGID_5_" gradientUnits="userSpaceOnUse" x1="-61.6817" y1="38.0652" x2="178.2962" y2="38.0652" gradientTransform="matrix(0.9999 -1.709792e-03 1.709792e-03 0.9999 10.7203 -4.2316)">
		<stop  offset="0" style="stop-color:#1C75BC"/>
		<stop  offset="0.5" style="stop-color:#00AEEF"/>
		<stop  offset="1" style="stop-color:#4FD5DF"/>
	</linearGradient>
	<path class="st19" d="M186-53.9c0,0,26.4,61.5-77.8,95.9C-3.5,78.8-39.6,109.9-2.5,121.3c0,0-55.9-4.4-47.5-56.5"/>
	
		<linearGradient id="SVGID_6_" gradientUnits="userSpaceOnUse" x1="26.1704" y1="284.3232" x2="26.1704" y2="188.5081" gradientTransform="matrix(0.9999 -1.709792e-03 1.709792e-03 0.9999 10.7203 -4.2316)">
		<stop  offset="0" style="stop-color:#DA1C5C"/>
		<stop  offset="0.5" style="stop-color:#9E1F63"/>
		<stop  offset="1" style="stop-color:#9E1F63"/>
	</linearGradient>
	<path class="st20" d="M58.5,184.2c0,0-44.4,39.1-5,94.9c0.4,0.6-0.3,1.2-0.8,0.8c-7.4-5.5-18.7-15.7-27.5-25.2
		C-1.4,225.8,36.1,196.6,58.5,184.2z"/>
	
		<linearGradient id="SVGID_7_" gradientUnits="userSpaceOnUse" x1="26.6552" y1="284.3232" x2="26.6552" y2="188.5081" gradientTransform="matrix(0.9999 -1.709792e-03 1.709792e-03 0.9999 10.7203 -4.2316)">
		<stop  offset="0" style="stop-color:#DA1C5C"/>
		<stop  offset="0.9951" style="stop-color:#351840"/>
	</linearGradient>
	<path class="st21" d="M58.5,184.2c0,0-44.4,39.1-5,94.9c0.4,0.6-0.3,1.2-0.8,0.8c-7.4-5.5-24.4-19.3-30.1-29.7
		C3.9,215.6,36.1,196.6,58.5,184.2z"/>
	
		<linearGradient id="SVGID_8_" gradientUnits="userSpaceOnUse" x1="-12.4029" y1="177.7397" x2="156.5717" y2="177.7397" gradientTransform="matrix(0.9999 -1.709792e-03 1.709792e-03 0.9999 10.7203 -4.2316)">
		<stop  offset="0" style="stop-color:#EE2A7B"/>
		<stop  offset="0.5" style="stop-color:#DA1C5C"/>
		<stop  offset="1" style="stop-color:#9E1F63"/>
	</linearGradient>
	<path class="st22" d="M166.8,128.5c5.8-23.3-24.2-36.4-24.2-36.4c15.2,16.3-46.2,9.6-103.7,42.6c-40.8,23.4-40.2,61.5-40.2,61.5
		l0.1,0.1c-1,34.2,26.5,58.5,26.5,58.5C-1.7,163.6,156,171.4,166.8,128.5z"/>
	
		<linearGradient id="SVGID_9_" gradientUnits="userSpaceOnUse" x1="-12.4029" y1="177.7397" x2="156.806" y2="177.7397" gradientTransform="matrix(0.9999 -1.709792e-03 1.709792e-03 0.9999 10.7203 -4.2316)">
		<stop  offset="0" style="stop-color:#EE2A7B;stop-opacity:0"/>
		<stop  offset="0.1889" style="stop-color:#F13178;stop-opacity:0.3778"/>
		<stop  offset="0.5" style="stop-color:#F23477"/>
		<stop  offset="0.606" style="stop-color:#EE3376;stop-opacity:0.7881"/>
		<stop  offset="0.7168" style="stop-color:#E13073;stop-opacity:0.5664"/>
		<stop  offset="0.8299" style="stop-color:#CC2B6E;stop-opacity:0.3402"/>
		<stop  offset="0.9438" style="stop-color:#AF2367;stop-opacity:0.1123"/>
		<stop  offset="1" style="stop-color:#9E1F63;stop-opacity:0"/>
	</linearGradient>
	<path class="st23" d="M166.8,128.5c6.8-23.3-24.2-36.4-24.2-36.4c15.2,16.3-46.2,9.6-103.7,42.6c-40.8,23.4-40.2,61.5-40.2,61.5
		l0.1,0.1c-1,34.2,26.5,58.5,26.5,58.5C-1.7,163.6,151.7,171.8,166.8,128.5z"/>
	
		<linearGradient id="SVGID_10_" gradientUnits="userSpaceOnUse" x1="-61.6818" y1="38.0651" x2="175.339" y2="38.0651" gradientTransform="matrix(0.9999 -1.709792e-03 1.709792e-03 0.9999 10.7203 -4.2316)">
		<stop  offset="0" style="stop-color:#D9E8BC"/>
		<stop  offset="1" style="stop-color:#4FD5DF"/>
	</linearGradient>
	<path class="st24" d="M-50,64.8c-8.4,52.1,47.5,56.5,47.5,56.5c-63.9-8.6-58.3-62.9,65-101.1C182-16.7,186-53.9,186-53.9"/>
	
		<linearGradient id="SVGID_11_" gradientUnits="userSpaceOnUse" x1="-60.8117" y1="9.7578" x2="175.339" y2="9.7578" gradientTransform="matrix(0.9999 -1.709792e-03 1.709792e-03 0.9999 10.7203 -4.2316)">
		<stop  offset="0" style="stop-color:#D9E8BC"/>
		<stop  offset="1" style="stop-color:#4FD5DF"/>
	</linearGradient>
	<path class="st25" d="M186-53.9c-65.2,30.8-175.6,65-175.6,65C-21.4,23.5-45,34.1-50,64.8"/>
	
		<linearGradient id="SVGID_12_" gradientUnits="userSpaceOnUse" x1="2.0382" y1="141.1939" x2="127.8934" y2="-76.7938" gradientTransform="matrix(0.9999 -1.709792e-03 1.709792e-03 0.9999 10.7203 -4.2316)">
		<stop  offset="0" style="stop-color:#1C75BC;stop-opacity:0"/>
		<stop  offset="2.620730e-02" style="stop-color:#2E80C0;stop-opacity:5.241460e-02"/>
		<stop  offset="0.1239" style="stop-color:#6DA6CE;stop-opacity:0.2478"/>
		<stop  offset="0.2174" style="stop-color:#A1C6DA;stop-opacity:0.4349"/>
		<stop  offset="0.3043" style="stop-color:#CADFE3;stop-opacity:0.6085"/>
		<stop  offset="0.3829" style="stop-color:#E7F0EA;stop-opacity:0.7659"/>
		<stop  offset="0.4508" style="stop-color:#F9FBEE;stop-opacity:0.9016"/>
		<stop  offset="0.5" style="stop-color:#FFFFEF"/>
		<stop  offset="0.6046" style="stop-color:#FCFEEF;stop-opacity:0.7907"/>
		<stop  offset="0.681" style="stop-color:#F3FCEE;stop-opacity:0.6379"/>
		<stop  offset="0.7485" style="stop-color:#E3F8EC;stop-opacity:0.5031"/>
		<stop  offset="0.8107" style="stop-color:#CCF3EA;stop-opacity:0.3786"/>
		<stop  offset="0.8694" style="stop-color:#AFECE8;stop-opacity:0.2612"/>
		<stop  offset="0.9254" style="stop-color:#8CE3E5;stop-opacity:0.1491"/>
		<stop  offset="0.9784" style="stop-color:#62DAE1;stop-opacity:4.321724e-02"/>
		<stop  offset="1" style="stop-color:#4FD5DF;stop-opacity:0"/>
	</linearGradient>
	<path class="st26" d="M186-53.9c0,0-4,37.2-123.4,74.2C-31.7,49.4-57.2,88-35.4,108.5c7.4,6,16.1,9.2,22.6,10.9
		c3.2,0.8,6.6,1.4,10.3,1.9c-37.1-11.4-1-42.5,110.7-79.3C212.4,7.6,186-53.9,186-53.9"/>
	
		<linearGradient id="SVGID_13_" gradientUnits="userSpaceOnUse" x1="-12.4029" y1="177.7397" x2="147.9435" y2="177.7397" gradientTransform="matrix(0.9999 -1.709792e-03 1.709792e-03 0.9999 10.7203 -4.2316)">
		<stop  offset="0" style="stop-color:#EE2A7B;stop-opacity:0"/>
		<stop  offset="0.1864" style="stop-color:#D92775;stop-opacity:0.1864"/>
		<stop  offset="0.524" style="stop-color:#B9236B;stop-opacity:0.524"/>
		<stop  offset="0.8073" style="stop-color:#A52065;stop-opacity:0.8073"/>
		<stop  offset="1" style="stop-color:#9E1F63"/>
	</linearGradient>
	<path class="st27" d="M142.4,126.4c21.3-7,16-20.5,15.5-21.7c-6.9-8.7-15.3-12.6-15.3-12.6c15.2,16.3-46.2,9.6-103.7,42.6
		c-40.8,23.4-40.2,61.5-40.2,61.5l0.1,0.1c-1,34.2,26.5,58.5,26.5,58.5C-51.3,167.7,119.3,134,142.4,126.4z"/>
	
		<linearGradient id="SVGID_14_" gradientUnits="userSpaceOnUse" x1="-5.9628" y1="177.7397" x2="156.8061" y2="177.7397" gradientTransform="matrix(0.9999 -1.709792e-03 1.709792e-03 0.9999 10.7203 -4.2316)">
		<stop  offset="0" style="stop-color:#EE2A7B;stop-opacity:0"/>
		<stop  offset="4.750010e-02" style="stop-color:#F25797;stop-opacity:9.500021e-02"/>
		<stop  offset="0.1021" style="stop-color:#F583B2;stop-opacity:0.2041"/>
		<stop  offset="0.1591" style="stop-color:#F8A9CA;stop-opacity:0.3182"/>
		<stop  offset="0.2179" style="stop-color:#FBC9DD;stop-opacity:0.4358"/>
		<stop  offset="0.2791" style="stop-color:#FDE1EC;stop-opacity:0.5582"/>
		<stop  offset="0.3437" style="stop-color:#FEF2F7;stop-opacity:0.6873"/>
		<stop  offset="0.4138" style="stop-color:#FFFCFD;stop-opacity:0.8276"/>
		<stop  offset="0.5" style="stop-color:#FFFFFF"/>
		<stop  offset="0.5637" style="stop-color:#FDFBFC;stop-opacity:0.8726"/>
		<stop  offset="0.6304" style="stop-color:#F8EEF3;stop-opacity:0.7391"/>
		<stop  offset="0.6985" style="stop-color:#EFD9E5;stop-opacity:0.6029"/>
		<stop  offset="0.7676" style="stop-color:#E2BCD0;stop-opacity:0.4648"/>
		<stop  offset="0.8374" style="stop-color:#D296B6;stop-opacity:0.3252"/>
		<stop  offset="0.9078" style="stop-color:#BE6896;stop-opacity:0.1843"/>
		<stop  offset="0.9775" style="stop-color:#A63270;stop-opacity:4.495645e-02"/>
		<stop  offset="1" style="stop-color:#9E1F63;stop-opacity:0"/>
	</linearGradient>
	<path class="st28" d="M142.5,92.1c0,0,8.4,3.9,15.3,12.6c0.6,1.3,5.8,14.8-15.5,21.7c-23.1,7.5-195,37.8-117.2,128.3
		c-26.9-91,126.5-82.8,141.5-126.2C173.5,105.2,142.5,92.1,142.5,92.1z"/>
</g>
</svg>
