<svg xmlns="http://www.w3.org/2000/svg" xmlns:xlink="http://www.w3.org/1999/xlink" viewBox="0 0 1139 978"><defs><style>.cls-1{fill:none;}.cls-2{isolation:isolate;}.cls-3{clip-path:url(#clip-path);}.cls-4{fill:#072535;opacity:0.21;mix-blend-mode:multiply;}.cls-5{fill:#64b5f6;}.cls-6{fill:#ff9a15;}.cls-7{fill:#90caf9;}.cls-8{fill:#ea2143;}.cls-9{fill:#ff5065;}.cls-10{fill:#aa0428;}.cls-11{fill:#f9d640;}.cls-12{fill:#f7c841;}.cls-13{fill:#1e88e5;}.cls-14{mix-blend-mode:overlay;fill:url(#linear-gradient);}</style><clipPath id="clip-path"><rect class="cls-1" width="1139" height="978"/></clipPath><linearGradient id="linear-gradient" x1="270.91" y1="223.94" x2="-193.17" y2="198.27" gradientUnits="userSpaceOnUse"><stop offset="0" stop-color="#fff" stop-opacity="0"/><stop offset="1" stop-color="#fff"/></linearGradient></defs><title>Artboard 1</title><g class="cls-2"><g id="Layer_1" data-name="Layer 1"><g class="cls-3"><path class="cls-4" d="M73.18-7.29A80.27,80.27,0,0,0-7.08,73V978.18L168.81,761.36,76.31,659.62,260.62,448.15l210.2,84.56L497.44,94.44,698.23,212.73,1056-7.29Z"/><polygon class="cls-5" points="568.76 362.9 621.92 406.09 559.9 407.2 568.76 362.9"/><polygon class="cls-6" points="797.18 353.9 831.23 393.63 852.51 336.87 797.18 353.9"/><polygon class="cls-7" points="1102.26 268.76 1087.05 301.71 1139.01 301.71 1102.26 268.76"/><polygon class="cls-6" points="371.42 618.47 461.12 668.3 381.38 693.22 371.42 618.47"/><polygon class="cls-8" points="300.32 902.79 341.44 889.59 337.48 939.06 300.32 902.79"/><polygon class="cls-9" points="944.13 291.63 911.85 283.71 921.6 301.99 944.13 291.63"/><path class="cls-9" d="M480.38-39,447.89,495.92,241.78,413-37.38,300.72V47.49A86.5,86.5,0,0,1,49.11-39Z"/><polygon class="cls-8" points="480.38 -0.49 450.23 495.92 99.15 -0.49 480.38 -0.49"/><polygon class="cls-5" points="-0.11 716.21 258.95 418.97 -0.11 314.77 -0.11 716.21"/><polygon class="cls-10" points="480.38 -0.49 450.23 495.92 336.8 -0.49 480.38 -0.49"/><polygon class="cls-11" points="1005.42 -0.49 704.87 184.33 391.13 -0.49 1005.42 -0.49"/><polygon class="cls-6" points="704.87 184.33 391.13 -0.49 681.83 -0.49 704.87 184.33"/><polygon class="cls-12" points="681.83 -0.49 704.87 184.33 844.43 -0.49 681.83 -0.49"/><polygon class="cls-13" points="-0.11 716.21 258.95 418.97 -0.11 479.19 -0.11 716.21"/><path class="cls-14" d="M575.85-39H48.4C1.24-39-37-.22-37,47.61v439.1Z"/><polygon class="cls-6" points="-0.11 937.11 136.05 769.27 -0.11 619.52 -0.11 937.11"/><polygon class="cls-12" points="-0.11 785.1 -0.11 937.11 136.05 769.27 -0.11 785.1"/></g></g></g></svg>